<?xml version="1.0" standalone="no"?>
<!DOCTYPE svg PUBLIC "-//W3C//DTD SVG 20010904//EN"
 "http://www.w3.org/TR/2001/REC-SVG-20010904/DTD/svg10.dtd">
<svg version="1.0" xmlns="http://www.w3.org/2000/svg"
 width="500.000000pt" height="500.000000pt" viewBox="0 0 500.000000 500.000000"
 preserveAspectRatio="xMidYMid meet">

<g transform="translate(0.000000,500.000000) scale(0.100000,-0.100000)"
fill="#000000" stroke="none">
<path d="M2449 4141 c-24 -19 -24 -22 -27 -235 -3 -180 -1 -220 13 -245 17
-33 50 -47 90 -37 50 13 56 46 53 282 -3 213 -3 216 -27 235 -13 10 -36 19
-51 19 -15 0 -38 -9 -51 -19z"/>
<path d="M1961 3918 c-53 -19 -67 -80 -28 -121 50 -56 309 -267 333 -273 41
-10 78 23 82 73 l3 41 -163 139 c-90 77 -172 142 -183 145 -12 3 -31 1 -44 -4z"/>
<path d="M2825 3789 c-88 -77 -163 -145 -167 -152 -17 -27 -8 -75 18 -96 50
-39 55 -36 258 139 170 147 185 170 149 219 -15 19 -30 27 -59 28 -37 2 -47
-5 -199 -138z"/>
<path d="M3710 3549 c-174 -23 -313 -139 -370 -310 -18 -53 -21 -81 -18 -165
3 -92 6 -107 40 -176 46 -93 122 -167 215 -211 87 -40 218 -50 319 -22 267 72
406 380 284 631 -88 180 -271 279 -470 253z m158 -178 c108 -55 167 -162 160
-291 -9 -164 -120 -273 -278 -273 -154 0 -267 110 -278 270 -9 145 63 260 195
309 52 20 148 12 201 -15z"/>
<path d="M1145 3537 c-198 -66 -325 -236 -325 -437 0 -175 96 -327 259 -408
72 -35 80 -37 176 -37 97 0 104 2 177 38 135 66 224 187 250 336 33 194 -69
389 -249 478 -66 33 -85 37 -161 40 -53 2 -102 -2 -127 -10z m235 -173 c64
-35 114 -91 134 -152 19 -53 21 -159 5 -212 -18 -59 -78 -130 -139 -164 -107
-60 -242 -36 -327 57 -55 62 -77 120 -77 207 0 57 6 88 23 128 28 62 102 133
164 156 63 23 152 15 217 -20z"/>
<path d="M2663 3380 c-52 -11 -100 -35 -135 -67 l-26 -25 -39 30 c-71 58 -182
78 -273 51 -81 -25 -129 -74 -201 -211 -82 -155 -113 -201 -198 -291 -92 -97
-178 -160 -306 -223 -213 -104 -410 -136 -772 -125 -142 4 -192 -11 -267 -80
-74 -67 -100 -129 -101 -234 0 -64 5 -90 23 -127 30 -60 90 -120 150 -150 42
-21 61 -23 187 -23 77 0 243 4 369 8 l228 8 -7 -37 c-28 -150 -129 -379 -243
-548 -82 -121 -102 -167 -102 -230 0 -192 208 -326 383 -248 147 66 347 287
438 486 19 41 36 75 39 76 3 0 38 -72 78 -159 41 -87 87 -174 103 -194 70 -85
220 -117 320 -69 97 47 160 142 162 242 0 32 -43 287 -103 603 -68 359 -100
553 -94 562 5 7 37 46 71 86 36 42 81 112 105 161 24 48 45 87 48 87 3 0 24
-39 48 -87 24 -49 69 -119 105 -161 34 -40 66 -79 71 -86 6 -8 -28 -211 -92
-561 -56 -302 -102 -574 -102 -604 0 -74 34 -144 95 -198 106 -94 253 -94 359
-1 47 41 70 83 171 304 l36 79 47 -95 c111 -224 322 -442 468 -485 92 -27 179
-5 254 62 53 48 81 103 87 175 7 77 -11 125 -91 243 -72 105 -148 250 -189
361 -32 86 -70 225 -64 232 3 2 155 -1 337 -8 369 -13 405 -10 483 42 197 130
177 435 -35 538 -64 31 -121 37 -252 29 -196 -12 -422 14 -584 68 -165 55
-291 132 -413 254 -95 93 -168 199 -230 327 -21 46 -57 103 -79 127 -64 70
-173 105 -267 86z m-302 -173 c19 -12 43 -39 54 -59 19 -36 19 -38 1 -125 -46
-227 -110 -360 -229 -476 -69 -67 -81 -83 -80 -110 1 -18 49 -287 107 -599 58
-312 106 -579 106 -593 0 -66 -55 -115 -129 -115 -68 0 -88 28 -215 305 -64
138 -125 258 -137 267 -27 23 -61 23 -87 1 -11 -10 -32 -58 -47 -108 -58 -193
-146 -338 -289 -480 -103 -102 -151 -130 -204 -121 -44 7 -90 50 -98 91 -7 39
10 78 76 170 61 86 145 249 194 374 53 135 77 246 74 338 -5 123 23 116 -433
100 -209 -8 -392 -11 -406 -7 -109 31 -152 157 -85 245 45 59 49 60 306 61
254 1 351 12 515 59 207 60 382 161 526 305 99 99 171 202 249 354 44 88 62
112 90 127 47 26 100 24 141 -4z m433 -6 c21 -12 45 -47 85 -126 195 -384 477
-599 898 -687 94 -19 142 -22 365 -24 l258 -2 35 -26 c98 -75 90 -209 -15
-263 l-45 -23 -385 15 c-423 15 -418 16 -442 -43 -15 -39 5 -189 41 -298 56
-171 167 -395 249 -502 20 -26 41 -62 48 -81 24 -70 -22 -140 -97 -148 -54 -6
-105 25 -209 128 -130 129 -223 284 -280 467 -33 105 -52 132 -97 132 -42 0
-71 -45 -182 -290 -128 -280 -143 -300 -221 -300 -68 0 -110 36 -117 100 -3
31 30 223 106 627 61 320 108 590 104 599 -4 10 -43 54 -88 98 -64 64 -90 99
-123 166 -51 104 -91 241 -98 335 -7 86 14 126 79 155 46 22 83 19 131 -9z"/>
</g>
</svg>
