<?xml version="1.0" standalone="no"?>
<!DOCTYPE svg PUBLIC "-//W3C//DTD SVG 20010904//EN"
 "http://www.w3.org/TR/2001/REC-SVG-20010904/DTD/svg10.dtd">
<svg version="1.0" xmlns="http://www.w3.org/2000/svg"
 width="500.000000pt" height="500.000000pt" viewBox="0 0 500.000000 500.000000"
 preserveAspectRatio="xMidYMid meet">

<g transform="translate(0.000000,500.000000) scale(0.100000,-0.100000)"
fill="#000000" stroke="none">
<path d="M2471 4106 c-8 -9 -11 -56 -9 -141 3 -109 6 -129 21 -139 12 -8 22
-8 35 0 14 10 17 30 20 139 3 132 -3 155 -38 155 -10 0 -23 -6 -29 -14z"/>
<path d="M2185 3970 c-9 -10 -15 -26 -12 -33 6 -17 155 -150 185 -166 29 -16
70 18 57 47 -12 24 -184 172 -200 172 -7 0 -20 -9 -30 -20z"/>
<path d="M2682 3913 c-93 -80 -107 -98 -96 -126 9 -25 35 -29 63 -11 53 34
181 157 181 173 0 22 -19 41 -40 41 -9 0 -57 -35 -108 -77z"/>
<path d="M1715 3757 c-55 -26 -110 -82 -131 -133 -20 -48 -17 -151 5 -199 23
-51 98 -118 149 -133 124 -37 254 31 297 157 52 155 -51 315 -212 327 -47 4
-68 0 -108 -19z m155 -79 c62 -32 90 -77 90 -145 0 -62 -17 -100 -59 -136
-122 -102 -300 46 -237 197 24 57 85 102 146 105 9 1 36 -9 60 -21z"/>
<path d="M3122 3767 c-40 -12 -117 -79 -137 -117 -89 -172 28 -370 219 -370
230 0 339 271 174 431 -63 61 -169 84 -256 56z m156 -99 c48 -30 75 -89 70
-155 -3 -33 -13 -65 -25 -81 -91 -122 -283 -61 -283 90 0 84 35 138 107 164
44 16 84 10 131 -18z"/>
<path d="M2327 3676 c-55 -20 -73 -40 -120 -131 -57 -111 -164 -219 -267 -268
-114 -55 -191 -70 -365 -71 -163 -2 -193 -10 -234 -61 -71 -91 -41 -220 63
-266 37 -16 60 -17 234 -11 220 8 207 15 171 -90 -27 -80 -72 -169 -121 -240
-52 -74 -60 -129 -27 -187 24 -43 85 -81 130 -81 86 1 238 142 305 283 10 20
20 37 23 37 3 0 22 -37 41 -81 19 -45 50 -96 67 -115 57 -58 151 -58 209 0 60
60 60 71 -7 428 l-60 319 46 52 c24 28 53 71 62 94 10 24 20 43 23 43 3 0 13
-19 23 -43 9 -23 38 -66 63 -95 l45 -52 -55 -299 c-31 -164 -56 -318 -56 -342
0 -53 27 -101 72 -130 41 -25 125 -22 166 7 15 11 46 59 72 111 25 50 48 95
52 98 3 4 23 -26 45 -67 48 -92 161 -208 226 -233 110 -42 217 38 204 152 -3
29 -18 62 -45 101 -50 72 -94 160 -121 241 -34 104 -49 97 171 89 158 -5 198
-4 227 8 141 59 150 240 16 312 -23 13 -64 17 -185 18 -252 3 -373 47 -511
184 -54 54 -87 98 -116 155 -47 91 -62 107 -117 130 -46 19 -94 13 -143 -17
-33 -20 -33 -20 -65 0 -46 28 -96 34 -141 18z m110 -98 c27 -25 29 -52 8 -133
-25 -94 -60 -161 -115 -220 l-52 -54 61 -328 c34 -180 61 -338 61 -350 0 -21
-42 -63 -64 -63 -39 1 -61 31 -125 169 -36 79 -74 149 -84 155 -28 18 -48 -4
-77 -88 -50 -142 -186 -306 -254 -306 -37 0 -66 26 -66 58 0 13 20 55 45 92
111 167 180 399 130 440 -11 9 -69 10 -237 5 l-223 -8 -27 28 c-37 36 -38 86
-3 120 13 14 30 25 37 25 7 1 81 2 163 4 176 4 263 23 383 86 132 68 226 167
300 317 17 33 37 63 44 66 31 13 73 6 95 -15z m224 12 c10 -6 33 -39 50 -73
87 -172 204 -282 368 -344 101 -38 199 -53 347 -53 130 0 136 -1 159 -25 38
-37 37 -88 -3 -124 l-26 -24 -224 7 c-166 5 -227 4 -238 -5 -47 -38 30 -285
139 -447 48 -70 51 -84 26 -115 -28 -37 -66 -35 -118 6 -85 67 -152 167 -195
291 -24 66 -46 87 -73 70 -10 -6 -48 -76 -84 -155 -64 -138 -86 -168 -125
-169 -22 0 -64 42 -64 63 0 12 27 169 61 350 l62 327 -52 55 c-59 62 -93 129
-116 229 -13 54 -14 75 -5 96 18 43 70 61 111 40z"/>
<path d="M1573 1754 c-58 -13 -98 -103 -73 -165 25 -59 143 -61 189 -2 29 35
29 122 2 147 -20 18 -79 28 -118 20z"/>
<path d="M831 1698 c-6 -29 -38 -208 -71 -398 -33 -190 -62 -355 -65 -367 -5
-23 -4 -23 90 -23 52 0 95 3 95 8 0 45 62 338 75 352 34 38 117 32 127 -8 3
-11 -3 -74 -14 -139 -19 -108 -19 -121 -5 -155 8 -20 27 -44 42 -54 41 -27
114 -30 168 -6 l45 20 4 61 3 61 -33 0 c-21 0 -35 6 -39 16 -3 9 2 57 11 108
9 51 16 118 16 149 0 48 -4 61 -27 87 -48 53 -185 58 -253 10 -15 -11 -30 -20
-32 -20 -2 0 8 69 23 153 40 217 46 197 -60 197 l-90 0 -10 -52z"/>
<path d="M3205 1738 c-4 -13 -145 -810 -145 -822 0 -3 42 -6 93 -6 l92 0 29
168 c16 92 32 175 37 184 5 10 27 23 49 29 33 10 43 9 65 -5 30 -20 32 -46 10
-159 -27 -144 -15 -193 55 -221 53 -21 105 -20 158 4 l42 19 0 61 0 60 -34 0
c-19 0 -36 6 -39 13 -3 7 3 58 14 113 30 161 24 217 -26 250 -60 39 -180 35
-238 -7 -16 -12 -30 -19 -32 -17 -2 1 10 77 26 168 16 91 29 168 29 173 0 13
-180 8 -185 -5z"/>
<path d="M287 1699 c-82 -19 -155 -76 -192 -149 -38 -75 -101 -422 -91 -495
15 -98 89 -152 220 -162 140 -11 266 32 328 109 26 33 68 138 68 169 0 5 -44
9 -98 9 l-98 0 -12 -33 c-21 -58 -56 -82 -119 -82 -91 0 -99 33 -62 243 26
153 34 176 70 207 44 36 119 36 148 -1 25 -31 27 -81 6 -139 -8 -22 -15 -41
-15 -42 0 -2 42 -3 93 -3 l94 0 16 38 c68 153 27 283 -102 327 -49 17 -191 19
-254 4z"/>
<path d="M2645 1697 c-92 -31 -159 -88 -194 -167 -11 -25 -34 -124 -51 -220
-46 -254 -38 -318 49 -377 46 -31 132 -47 222 -40 175 14 273 92 308 246 l9
41 -98 0 -97 0 -16 -40 c-25 -65 -95 -95 -161 -70 -50 18 -52 45 -22 218 31
175 46 216 87 237 32 17 92 20 119 5 40 -21 47 -107 13 -173 l-14 -28 98 3 98
3 19 40 c21 45 32 136 22 189 -9 45 -47 91 -100 118 -51 27 -226 36 -291 15z"/>
<path d="M1930 1583 c-47 -19 -88 -38 -92 -41 -4 -4 -25 -112 -48 -241 -47
-271 -47 -297 9 -352 44 -44 123 -64 218 -56 116 11 188 57 232 151 16 33 32
74 35 89 l7 28 -93 -3 -92 -3 -8 -32 c-16 -62 -95 -95 -131 -55 -20 22 -21 80
-4 162 l12 55 152 3 c173 3 153 -9 171 100 l9 52 -154 0 -153 0 5 23 c7 33 25
139 25 149 0 12 -6 10 -100 -29z"/>
<path d="M4616 1581 c-70 -29 -91 -43 -97 -62 -22 -73 -81 -460 -75 -493 17
-91 116 -143 252 -133 84 6 145 31 193 78 34 34 73 108 85 162 l6 27 -89 0
-90 0 -20 -44 c-28 -63 -88 -88 -125 -50 -19 18 -20 94 -2 169 l11 50 152 3
152 3 7 37 c3 20 10 54 14 75 l8 37 -154 0 c-85 0 -154 1 -154 3 0 1 7 40 15
87 8 47 15 86 15 88 0 6 -21 -2 -104 -37z"/>
<path d="M3907 1423 c-90 -53 -134 -158 -144 -349 -6 -90 -5 -91 25 -125 67
-77 218 -77 286 -1 l18 21 32 -34 c39 -41 91 -53 156 -36 61 16 72 30 78 95
l4 56 -36 0 c-22 0 -39 6 -42 14 -3 7 9 90 25 184 17 94 31 176 31 181 0 7
-31 11 -80 11 -63 0 -82 -3 -87 -15 -5 -14 -8 -14 -25 2 -15 14 -40 19 -107
21 -79 3 -90 1 -134 -25z m199 -137 c20 -15 20 -16 4 -111 -19 -105 -32 -124
-86 -125 -18 0 -42 8 -55 19 -22 18 -23 21 -12 90 6 40 19 83 28 97 27 42 84
56 121 30z"/>
<path d="M1470 1438 c0 -2 -16 -91 -35 -198 -37 -208 -41 -244 -25 -284 22
-59 131 -84 213 -48 l47 21 0 60 0 61 -34 0 c-19 0 -36 6 -39 13 -4 11 15 130
56 355 4 22 2 22 -89 22 -52 0 -94 -1 -94 -2z"/>
</g>
</svg>
